# xmcd
#
# Track frame offsets:
# 150
# 17422
# 34749
# 52253
#
# Disc length: 834 seconds
#
#
# Revision: 1
# Processed by: cddbd v1.5.2PL0 Copyright (c) Steve Scherf et al.
# Submitted via: FreeRIP 2.951 
#
DISCID=2b034004
DTITLE=Fettes Brot - Bettina (feat.Modeselektor)
DYEAR=2008
DGENRE=Hip-Hop
TTITLE0=Bettina (feat.Modeselektor)
TTITLE1=Grüner Zweig
TTITLE2=Bettina (Superpunk Remix)
TTITLE3=Hamburg Calling
EXTD=
EXTT0=
EXTT1=
EXTT2=
EXTT3=
PLAYORDER=
